<mxfile host="app.diagrams.net" modified="2023-10-24T17:30:33.747Z" agent="Mozilla/5.0 (Windows NT 10.0; Win64; x64) AppleWebKit/537.36 (KHTML, like Gecko) Chrome/116.0.0.0 Safari/537.36 OPR/102.0.0.0" etag="X5UgGVKS6f9N0bV5qyyA" version="22.0.6" type="github">
  <diagram name="Page-1" id="XH7ds--GkApwz8ljcYA2">
    <mxGraphModel dx="575" dy="995" grid="1" gridSize="10" guides="1" tooltips="1" connect="1" arrows="1" fold="1" page="1" pageScale="1" pageWidth="1169" pageHeight="827" math="0" shadow="0">
      <root>
        <mxCell id="0" />
        <mxCell id="1" parent="0" />
        <mxCell id="r4hdXdpywcMCmOa5P3_6-1" value="" style="verticalLabelPosition=bottom;shadow=0;dashed=0;align=center;html=1;verticalAlign=top;shape=mxgraph.electrical.logic_gates.logic_gate;operation=xor;" vertex="1" parent="1">
          <mxGeometry x="150" y="210" width="100" height="60" as="geometry" />
        </mxCell>
        <mxCell id="r4hdXdpywcMCmOa5P3_6-35" style="edgeStyle=orthogonalEdgeStyle;shape=connector;rounded=0;orthogonalLoop=1;jettySize=auto;html=1;exitX=1;exitY=0.5;exitDx=0;exitDy=0;exitPerimeter=0;labelBackgroundColor=default;strokeColor=default;align=center;verticalAlign=middle;fontFamily=Helvetica;fontSize=11;fontColor=default;endArrow=none;endFill=0;" edge="1" parent="1" source="r4hdXdpywcMCmOa5P3_6-39">
          <mxGeometry relative="1" as="geometry">
            <mxPoint x="590" y="254.66666666666674" as="targetPoint" />
          </mxGeometry>
        </mxCell>
        <mxCell id="r4hdXdpywcMCmOa5P3_6-2" value="" style="verticalLabelPosition=bottom;shadow=0;dashed=0;align=center;html=1;verticalAlign=top;shape=mxgraph.electrical.logic_gates.logic_gate;operation=xor;" vertex="1" parent="1">
          <mxGeometry x="320" y="225" width="100" height="60" as="geometry" />
        </mxCell>
        <mxCell id="r4hdXdpywcMCmOa5P3_6-15" style="edgeStyle=orthogonalEdgeStyle;shape=connector;rounded=0;orthogonalLoop=1;jettySize=auto;html=1;exitX=0;exitY=0.25;exitDx=0;exitDy=0;exitPerimeter=0;labelBackgroundColor=default;strokeColor=default;align=center;verticalAlign=middle;fontFamily=Helvetica;fontSize=11;fontColor=default;endArrow=none;endFill=0;" edge="1" parent="1" source="r4hdXdpywcMCmOa5P3_6-4">
          <mxGeometry relative="1" as="geometry">
            <mxPoint x="260" y="300" as="targetPoint" />
          </mxGeometry>
        </mxCell>
        <mxCell id="r4hdXdpywcMCmOa5P3_6-19" style="edgeStyle=orthogonalEdgeStyle;shape=connector;rounded=0;orthogonalLoop=1;jettySize=auto;html=1;exitX=0;exitY=0.75;exitDx=0;exitDy=0;exitPerimeter=0;labelBackgroundColor=default;strokeColor=default;align=center;verticalAlign=middle;fontFamily=Helvetica;fontSize=11;fontColor=default;endArrow=none;endFill=0;" edge="1" parent="1" source="r4hdXdpywcMCmOa5P3_6-4">
          <mxGeometry relative="1" as="geometry">
            <mxPoint x="280" y="240" as="targetPoint" />
          </mxGeometry>
        </mxCell>
        <mxCell id="r4hdXdpywcMCmOa5P3_6-4" value="" style="verticalLabelPosition=bottom;shadow=0;dashed=0;align=center;html=1;verticalAlign=top;shape=mxgraph.electrical.logic_gates.logic_gate;operation=and;" vertex="1" parent="1">
          <mxGeometry x="300" y="320" width="100" height="60" as="geometry" />
        </mxCell>
        <mxCell id="r4hdXdpywcMCmOa5P3_6-17" style="edgeStyle=orthogonalEdgeStyle;shape=connector;rounded=0;orthogonalLoop=1;jettySize=auto;html=1;exitX=0;exitY=0.75;exitDx=0;exitDy=0;exitPerimeter=0;labelBackgroundColor=default;strokeColor=default;align=center;verticalAlign=middle;fontFamily=Helvetica;fontSize=11;fontColor=default;endArrow=none;endFill=0;" edge="1" parent="1" source="r4hdXdpywcMCmOa5P3_6-5">
          <mxGeometry relative="1" as="geometry">
            <mxPoint x="110" y="441.1724137931035" as="targetPoint" />
          </mxGeometry>
        </mxCell>
        <mxCell id="r4hdXdpywcMCmOa5P3_6-18" style="edgeStyle=orthogonalEdgeStyle;shape=connector;rounded=0;orthogonalLoop=1;jettySize=auto;html=1;exitX=0;exitY=0.25;exitDx=0;exitDy=0;exitPerimeter=0;labelBackgroundColor=default;strokeColor=default;align=center;verticalAlign=middle;fontFamily=Helvetica;fontSize=11;fontColor=default;endArrow=none;endFill=0;" edge="1" parent="1" source="r4hdXdpywcMCmOa5P3_6-5">
          <mxGeometry relative="1" as="geometry">
            <mxPoint x="130" y="255" as="targetPoint" />
          </mxGeometry>
        </mxCell>
        <mxCell id="r4hdXdpywcMCmOa5P3_6-5" value="" style="verticalLabelPosition=bottom;shadow=0;dashed=0;align=center;html=1;verticalAlign=top;shape=mxgraph.electrical.logic_gates.logic_gate;operation=and;" vertex="1" parent="1">
          <mxGeometry x="300" y="396" width="100" height="60" as="geometry" />
        </mxCell>
        <mxCell id="r4hdXdpywcMCmOa5P3_6-36" style="edgeStyle=orthogonalEdgeStyle;shape=connector;rounded=0;orthogonalLoop=1;jettySize=auto;html=1;exitX=1;exitY=0.5;exitDx=0;exitDy=0;exitPerimeter=0;labelBackgroundColor=default;strokeColor=default;align=center;verticalAlign=middle;fontFamily=Helvetica;fontSize=11;fontColor=default;endArrow=none;endFill=0;" edge="1" parent="1" source="r4hdXdpywcMCmOa5P3_6-6" target="r4hdXdpywcMCmOa5P3_6-37">
          <mxGeometry relative="1" as="geometry">
            <mxPoint x="590" y="390.20000000000005" as="targetPoint" />
          </mxGeometry>
        </mxCell>
        <mxCell id="r4hdXdpywcMCmOa5P3_6-6" value="" style="verticalLabelPosition=bottom;shadow=0;dashed=0;align=center;html=1;verticalAlign=top;shape=mxgraph.electrical.logic_gates.logic_gate;operation=or;" vertex="1" parent="1">
          <mxGeometry x="450" y="360" width="100" height="60" as="geometry" />
        </mxCell>
        <mxCell id="r4hdXdpywcMCmOa5P3_6-7" value="" style="verticalLabelPosition=bottom;shadow=0;dashed=0;align=center;html=1;verticalAlign=top;shape=mxgraph.electrical.logic_gates.inverting_contact;" vertex="1" parent="1">
          <mxGeometry x="80" y="220" width="10" height="10" as="geometry" />
        </mxCell>
        <mxCell id="r4hdXdpywcMCmOa5P3_6-8" value="" style="verticalLabelPosition=bottom;shadow=0;dashed=0;align=center;html=1;verticalAlign=top;shape=mxgraph.electrical.logic_gates.inverting_contact;" vertex="1" parent="1">
          <mxGeometry x="80" y="250" width="10" height="10" as="geometry" />
        </mxCell>
        <mxCell id="r4hdXdpywcMCmOa5P3_6-9" value="" style="verticalLabelPosition=bottom;shadow=0;dashed=0;align=center;html=1;verticalAlign=top;shape=mxgraph.electrical.logic_gates.inverting_contact;" vertex="1" parent="1">
          <mxGeometry x="80" y="300" width="10" height="10" as="geometry" />
        </mxCell>
        <mxCell id="r4hdXdpywcMCmOa5P3_6-10" style="edgeStyle=orthogonalEdgeStyle;rounded=0;orthogonalLoop=1;jettySize=auto;html=1;exitX=0.9;exitY=0.5;exitDx=0;exitDy=0;exitPerimeter=0;entryX=0;entryY=0.25;entryDx=0;entryDy=0;entryPerimeter=0;endArrow=none;endFill=0;" edge="1" parent="1" source="r4hdXdpywcMCmOa5P3_6-7" target="r4hdXdpywcMCmOa5P3_6-1">
          <mxGeometry relative="1" as="geometry" />
        </mxCell>
        <mxCell id="r4hdXdpywcMCmOa5P3_6-11" style="edgeStyle=orthogonalEdgeStyle;shape=connector;rounded=0;orthogonalLoop=1;jettySize=auto;html=1;exitX=0.9;exitY=0.5;exitDx=0;exitDy=0;exitPerimeter=0;entryX=0;entryY=0.75;entryDx=0;entryDy=0;entryPerimeter=0;labelBackgroundColor=default;strokeColor=default;align=center;verticalAlign=middle;fontFamily=Helvetica;fontSize=11;fontColor=default;endArrow=none;endFill=0;" edge="1" parent="1" source="r4hdXdpywcMCmOa5P3_6-8" target="r4hdXdpywcMCmOa5P3_6-1">
          <mxGeometry relative="1" as="geometry" />
        </mxCell>
        <mxCell id="r4hdXdpywcMCmOa5P3_6-12" style="edgeStyle=orthogonalEdgeStyle;shape=connector;rounded=0;orthogonalLoop=1;jettySize=auto;html=1;exitX=1;exitY=0.5;exitDx=0;exitDy=0;exitPerimeter=0;entryX=0;entryY=0.25;entryDx=0;entryDy=0;entryPerimeter=0;labelBackgroundColor=default;strokeColor=default;align=center;verticalAlign=middle;fontFamily=Helvetica;fontSize=11;fontColor=default;endArrow=none;endFill=0;" edge="1" parent="1" source="r4hdXdpywcMCmOa5P3_6-1" target="r4hdXdpywcMCmOa5P3_6-2">
          <mxGeometry relative="1" as="geometry" />
        </mxCell>
        <mxCell id="r4hdXdpywcMCmOa5P3_6-13" value="" style="edgeStyle=none;orthogonalLoop=1;jettySize=auto;html=1;rounded=0;labelBackgroundColor=default;strokeColor=default;align=center;verticalAlign=middle;fontFamily=Helvetica;fontSize=11;fontColor=default;endArrow=none;endFill=0;shape=connector;" edge="1" parent="1" source="r4hdXdpywcMCmOa5P3_6-29">
          <mxGeometry width="100" relative="1" as="geometry">
            <mxPoint x="110" y="225" as="sourcePoint" />
            <mxPoint x="110" y="441" as="targetPoint" />
            <Array as="points" />
          </mxGeometry>
        </mxCell>
        <mxCell id="r4hdXdpywcMCmOa5P3_6-14" style="edgeStyle=orthogonalEdgeStyle;shape=connector;rounded=0;orthogonalLoop=1;jettySize=auto;html=1;exitX=0.9;exitY=0.5;exitDx=0;exitDy=0;exitPerimeter=0;entryX=0;entryY=0.75;entryDx=0;entryDy=0;entryPerimeter=0;labelBackgroundColor=default;strokeColor=default;align=center;verticalAlign=middle;fontFamily=Helvetica;fontSize=11;fontColor=default;endArrow=none;endFill=0;" edge="1" parent="1" source="r4hdXdpywcMCmOa5P3_6-9" target="r4hdXdpywcMCmOa5P3_6-2">
          <mxGeometry relative="1" as="geometry">
            <Array as="points">
              <mxPoint x="260" y="305" />
              <mxPoint x="260" y="270" />
            </Array>
          </mxGeometry>
        </mxCell>
        <mxCell id="r4hdXdpywcMCmOa5P3_6-29" value="" style="verticalLabelPosition=bottom;shadow=0;dashed=0;align=center;html=1;verticalAlign=top;shape=mxgraph.electrical.logic_gates.inverting_contact;fontFamily=Helvetica;fontSize=11;fontColor=default;fillColor=#000000;" vertex="1" parent="1">
          <mxGeometry x="105" y="220" width="10" height="10" as="geometry" />
        </mxCell>
        <mxCell id="r4hdXdpywcMCmOa5P3_6-30" value="" style="verticalLabelPosition=bottom;shadow=0;dashed=0;align=center;html=1;verticalAlign=top;shape=mxgraph.electrical.logic_gates.inverting_contact;fontFamily=Helvetica;fontSize=11;fontColor=default;fillColor=#000000;" vertex="1" parent="1">
          <mxGeometry x="125" y="250" width="10" height="10" as="geometry" />
        </mxCell>
        <mxCell id="r4hdXdpywcMCmOa5P3_6-31" value="" style="verticalLabelPosition=bottom;shadow=0;dashed=0;align=center;html=1;verticalAlign=top;shape=mxgraph.electrical.logic_gates.inverting_contact;fontFamily=Helvetica;fontSize=11;fontColor=default;fillColor=#000000;" vertex="1" parent="1">
          <mxGeometry x="254" y="300" width="10" height="10" as="geometry" />
        </mxCell>
        <mxCell id="r4hdXdpywcMCmOa5P3_6-32" value="" style="verticalLabelPosition=bottom;shadow=0;dashed=0;align=center;html=1;verticalAlign=top;shape=mxgraph.electrical.logic_gates.inverting_contact;fontFamily=Helvetica;fontSize=11;fontColor=default;fillColor=#000000;" vertex="1" parent="1">
          <mxGeometry x="275" y="235" width="10" height="10" as="geometry" />
        </mxCell>
        <mxCell id="r4hdXdpywcMCmOa5P3_6-33" style="edgeStyle=orthogonalEdgeStyle;shape=connector;rounded=0;orthogonalLoop=1;jettySize=auto;html=1;exitX=1;exitY=0.5;exitDx=0;exitDy=0;exitPerimeter=0;entryX=0;entryY=0.75;entryDx=0;entryDy=0;entryPerimeter=0;labelBackgroundColor=default;strokeColor=default;align=center;verticalAlign=middle;fontFamily=Helvetica;fontSize=11;fontColor=default;endArrow=none;endFill=0;" edge="1" parent="1" source="r4hdXdpywcMCmOa5P3_6-5" target="r4hdXdpywcMCmOa5P3_6-6">
          <mxGeometry relative="1" as="geometry" />
        </mxCell>
        <mxCell id="r4hdXdpywcMCmOa5P3_6-34" style="edgeStyle=orthogonalEdgeStyle;shape=connector;rounded=0;orthogonalLoop=1;jettySize=auto;html=1;exitX=1;exitY=0.5;exitDx=0;exitDy=0;exitPerimeter=0;entryX=0;entryY=0.25;entryDx=0;entryDy=0;entryPerimeter=0;labelBackgroundColor=default;strokeColor=default;align=center;verticalAlign=middle;fontFamily=Helvetica;fontSize=11;fontColor=default;endArrow=none;endFill=0;" edge="1" parent="1" source="r4hdXdpywcMCmOa5P3_6-4" target="r4hdXdpywcMCmOa5P3_6-6">
          <mxGeometry relative="1" as="geometry" />
        </mxCell>
        <mxCell id="r4hdXdpywcMCmOa5P3_6-37" value="" style="verticalLabelPosition=bottom;shadow=0;dashed=0;align=center;html=1;verticalAlign=top;shape=mxgraph.electrical.logic_gates.inverting_contact;fontFamily=Helvetica;fontSize=11;fontColor=default;" vertex="1" parent="1">
          <mxGeometry x="585" y="385.20000000000005" width="10" height="10" as="geometry" />
        </mxCell>
        <mxCell id="r4hdXdpywcMCmOa5P3_6-40" value="" style="edgeStyle=orthogonalEdgeStyle;shape=connector;rounded=0;orthogonalLoop=1;jettySize=auto;html=1;exitX=1;exitY=0.5;exitDx=0;exitDy=0;exitPerimeter=0;labelBackgroundColor=default;strokeColor=default;align=center;verticalAlign=middle;fontFamily=Helvetica;fontSize=11;fontColor=default;endArrow=none;endFill=0;" edge="1" parent="1" source="r4hdXdpywcMCmOa5P3_6-2" target="r4hdXdpywcMCmOa5P3_6-39">
          <mxGeometry relative="1" as="geometry">
            <mxPoint x="590" y="254.66666666666674" as="targetPoint" />
            <mxPoint x="420" y="255" as="sourcePoint" />
          </mxGeometry>
        </mxCell>
        <mxCell id="r4hdXdpywcMCmOa5P3_6-39" value="" style="verticalLabelPosition=bottom;shadow=0;dashed=0;align=center;html=1;verticalAlign=top;shape=mxgraph.electrical.logic_gates.inverting_contact;fontFamily=Helvetica;fontSize=11;fontColor=default;" vertex="1" parent="1">
          <mxGeometry x="585" y="250" width="10" height="10" as="geometry" />
        </mxCell>
        <mxCell id="r4hdXdpywcMCmOa5P3_6-41" value="&lt;font style=&quot;font-size: 25px;&quot;&gt;S&lt;/font&gt;" style="text;html=1;align=center;verticalAlign=middle;resizable=0;points=[];autosize=1;strokeColor=none;fillColor=none;fontSize=11;fontFamily=Helvetica;fontColor=default;" vertex="1" parent="1">
          <mxGeometry x="585" y="235" width="40" height="40" as="geometry" />
        </mxCell>
        <mxCell id="r4hdXdpywcMCmOa5P3_6-43" value="&lt;font style=&quot;font-size: 25px;&quot;&gt;A&lt;/font&gt;" style="text;html=1;align=center;verticalAlign=middle;resizable=0;points=[];autosize=1;strokeColor=none;fillColor=none;fontSize=11;fontFamily=Helvetica;fontColor=default;" vertex="1" parent="1">
          <mxGeometry x="50" y="205" width="40" height="40" as="geometry" />
        </mxCell>
        <mxCell id="r4hdXdpywcMCmOa5P3_6-44" value="&lt;span style=&quot;font-size: 25px;&quot;&gt;B&lt;/span&gt;" style="text;html=1;align=center;verticalAlign=middle;resizable=0;points=[];autosize=1;strokeColor=none;fillColor=none;fontSize=11;fontFamily=Helvetica;fontColor=default;" vertex="1" parent="1">
          <mxGeometry x="50" y="235" width="40" height="40" as="geometry" />
        </mxCell>
        <mxCell id="r4hdXdpywcMCmOa5P3_6-45" value="&lt;font style=&quot;font-size: 25px;&quot;&gt;C&lt;/font&gt;&lt;font style=&quot;font-size: 13px;&quot;&gt;in&lt;/font&gt;" style="text;html=1;align=center;verticalAlign=middle;resizable=0;points=[];autosize=1;strokeColor=none;fillColor=none;fontSize=11;fontFamily=Helvetica;fontColor=default;" vertex="1" parent="1">
          <mxGeometry x="40" y="285" width="50" height="40" as="geometry" />
        </mxCell>
        <mxCell id="r4hdXdpywcMCmOa5P3_6-46" value="&lt;font style=&quot;font-size: 25px;&quot;&gt;C&lt;/font&gt;&lt;font style=&quot;font-size: 13px;&quot;&gt;out&lt;/font&gt;" style="text;html=1;align=center;verticalAlign=middle;resizable=0;points=[];autosize=1;strokeColor=none;fillColor=none;fontSize=11;fontFamily=Helvetica;fontColor=default;" vertex="1" parent="1">
          <mxGeometry x="585" y="370" width="60" height="40" as="geometry" />
        </mxCell>
      </root>
    </mxGraphModel>
  </diagram>
</mxfile>
